<?xml version="1.0" encoding="UTF-8"?>
<svg id="Camada_2" data-name="Camada 2" xmlns="http://www.w3.org/2000/svg" viewBox="0 0 165.36 202.94">
  <defs>
    <style>
      .cls-1 {
        fill: #cf606e;
      }
    </style>
  </defs>
  <g id="Camada_32" data-name="Camada 32">
    <g id="Camada_2-2" data-name="Camada 2">
      <g id="Camada_1-2" data-name="Camada 1-2">
        <g>
          <path class="cls-1" d="M94.13,80.36c-2.15-6.69-3.63-13.58-4.4-20.56-2.63-2.06-5.42-3.93-8.33-5.57-17.35-9.71-27.5-15.29-30.45-16.73-7.3-3.72-11.47-7.99-12.5-12.79-.82-3.59.26-7.35,2.87-9.95,2.69-2.89,6.77-4.34,12.23-4.35h1.82c2.43.08,4.81.63,7.03,1.62,1.56.67,2.85,1.84,3.65,3.33.5,1.05.89,2.15,1.16,3.27.17.78.21,1.58.13,2.37-.24,2.13-1.25,4.09-2.86,5.51-1.74,1.68-2.52,3.06-2.34,4.15.58,2.97,2.25,5.61,4.68,7.42,2.79,2.25,6.3,3.43,9.89,3.32.28,0,.57-.03.85-.07.39,0,.67-.07.85-.07,3.77-.12,7.34-1.71,9.95-4.42,2.42-2.35,3.77-5.6,3.71-8.98-.07-2.82-2.17-9.03-9.89-15.78-.54-.54-12.94-11.1-29.03-12.01-2.02-.1-4.04-.1-6.06,0-4.34.23-8.65.97-12.82,2.2-4.2,1-8.21,2.68-11.87,4.98-4.24,2.64-7.74,6.31-10.18,10.66-2.12,3.79-3.3,8.03-3.44,12.37,0,14.05,15.18,26.36,24.48,30.86,8.76,4.27,14.7,7.35,17.83,9.25.26.19.61.42,1,.69,2.44,1.45,4.08,2.49,4.98,3.13s2.28,1.84,4.23,3.6c1.84,1.68,3.32,3.71,4.36,5.97.76,1.61,1.31,3.3,1.64,5.05.39,2.01.49,4.06.31,6.09-.25,2.72-.61,6.57-3.46,9.67-1.42,1.47-3.15,2.6-5.06,3.32-1.75.73-3.6,1.17-5.49,1.3-2.34.21-4.7.01-6.97-.58-3.57-.24-6.98-1.59-9.75-3.86-1.88-1.37-3.22-3.35-3.8-5.59-.17-1.01-.19-2.04-.06-3.06.09-1.84.68-3.63,1.7-5.17.73-1.15,1.71-2.12,2.86-2.86.99-.57,1.85-1.34,2.54-2.25.75-.99,1.11-2.23,1-3.46-.35-4.36-2.5-8.06-6.44-11.09-3.85-3-8.59-4.65-13.48-4.69-5.36-.27-10.62,1.54-14.67,5.06-3.88,3.31-6.22,8.07-6.47,13.17-.44,8.63,3.73,16.13,12.49,22.52,8.77,6.38,20.2,9.8,34.29,10.26h2.48c6.03.02,12.04-.65,17.92-1.99.09-.41.19-.83.32-1.24,1.76-5.97,7.14-10.01,8.64-11.16,6.86-4.97,14.96-7.96,23.4-8.66.74-1.37,1.34-2.81,1.8-4.29-3.46-2.39-6.01-5.88-7.24-9.9Z"/>
          <path class="cls-1" d="M164.58,190.32c-1.01,2.73-2.68,5.17-4.86,7.11-4.56,3.98-9.89,4.33-12.45,4.5-3.94.19-7.88-.49-11.54-1.99-2.27-.73-4.4-1.81-6.33-3.22-5.28-4.04-6.74-10.28-7.21-13.12-1.47,3.37-5.29,10.83-12.94,15.46-2.22,1.38-4.62,2.42-7.15,3.09-3.8,1-6.83.87-11.06.63-3.55-.05-7.08-.54-10.5-1.47-3.96-1.18-7.69-3.01-11.05-5.41-6.49-4.59-10.31-11.69-11.45-21.3-1.14-9.61,1.02-17.2,6.49-22.76,5.47-5.56,13.23-9.11,23.25-10.65,20.06-2.78,30.09-9.95,30.09-21.51-.34-4.45-1.31-7.86-2.91-10.23-1.6-2.38-4.28-3.77-8.03-4.17-.37-.02-.75-.05-1.11-.11-.37-.06-.73-.09-1.1-.1-3.98,0-6.95,1.39-8.9,4.17,3.64,2.68,5.75,6.97,5.64,11.49.04,4.21-1.78,8.21-4.98,10.95-6.83,5.97-17.01,6.01-23.89.1-3.16-2.73-4.99-6.69-5.04-10.86-.04-1.93.21-3.85.73-5.7,1.77-5.97,7.14-10.02,8.64-11.17,9.13-6.51,20.28-9.56,31.45-8.59,2.93.24,25.73,2.45,35.5,19.6,4.55,7.96,4.65,16.34,4.73,23.35.12,11.13-2.75,18.08-1.22,30.6.8,4.42,2.3,8.68,4.46,12.61,1.99,3.81,3.42,5.33,5.13,5.51,2.2.24,3.6-1.89,5.3-1.29,1.53.54,2.07,2.82,2.3,4.51ZM92.71,181.2c6.37,1.62,15.18-1.09,20.21-6.82,3.69-4.19,4.34-8.81,5.29-15.61.52-3.78.62-7.61.3-11.41-1.56.27-3.76.67-6.38,1.21-2.99.62-5.38,1.13-8.24,1.99-5.58,1.59-8.65,2.47-11.82,4.98-1.74,1.3-3.24,2.89-4.44,4.7-2.03,3.19-2.96,6.95-2.67,10.71.2,2.43.43,5.44,2.93,7.78,1.37,1.22,3.03,2.07,4.83,2.46Z"/>
          <path class="cls-1" d="M163.53,53.22c.49-4.84-.76-9.7-3.53-13.7-1.48-2.18-1.42-2.33.16-4.24,1.96-2.26,3.51-4.84,4.58-7.63,1.53-3.87.19-8.28-3.23-10.65-1.64-1.22-3.55-2.02-5.57-2.34-1.95-.09-3.52-1.63-3.64-3.58-.64-3.6-1.99-6.88-5.69-8.55l-1.49-.64c-1.8-.59-3.74-.59-5.54,0-1.72.62-3.36,1.46-4.88,2.48-1.03.83-2.51.8-3.5-.08-1.48-1.08-3.11-1.94-4.84-2.54-4-1.64-8.6-.07-10.76,3.68-1.99,3.11-2.65,6.64-2.99,10.22-.14,1.44-.6,2.18-2.17,2.31-2.96.36-5.81,1.38-8.32,2.99-3.27,1.88-5.97,4.61-7.8,7.91-1.24,1.97-2.15,4.13-2.7,6.4-.61,2.57-1.09,5.18-1.43,7.8-.66,12.35.99,24.71,4.85,36.45,1.36,4.54,4.41,8.39,8.53,10.74,1.97,1.02,3.99,1.94,6.06,2.76,4.85,2.12,10.36,2.12,15.21,0,7.55-3.06,14.19-7.63,20.55-12.63,5.49-4.32,10.8-8.96,14.01-15.34,1.89-3.76,3.77-7.55,4.14-11.82ZM150.59,64.1c-7.84,9.28-17.72,16.61-28.87,21.43-6.75,2.99-16.18-.72-18.7-7.67-4.45-12.33-6.6-25.1-4.17-38.22,1.17-6.28,4.34-11.57,11.14-13.46,3.4-1,6.83-.52,10.23.14.77.15,1.54.26,2.64.44-3.31-5.21-2.91-10.43-1.15-15.76.56-1.69,1.28-2.06,2.99-1.24,2.9,1.34,5.38,3.44,7.18,6.07.8,1.19,1.16,1.32,1.99.07,1.93-2.71,4.58-4.84,7.64-6.14,1.24-.59,1.93-.37,2.44,1,1.33,3.58,1.58,7.47.71,11.19.74.46,1.44,0,2.12-.09,3.23-.41,6.51.07,9.49,1.38.91.4,1.32.85.85,1.85-2.56,5.4-5.97,9.79-12.7,10.95,1.34.94,2.53,1.7,3.66,2.55,5.17,3.89,8.57,8.64,7.33,15.55-.69,3.68-2.33,7.12-4.77,9.97h-.03Z"/>
          <g>
            <path class="cls-1" d="M138.59,90.2l2.19,1.37c2.24,1.37,3.09,3.81,1.11,7.05-1.89,3.09-4.46,3.44-6.7,2.07l-2.19-1.33c-.19-.08-.28-.29-.2-.48,0-.02.01-.03.02-.05.18-.3.73-.38,1.38-1.44l3.19-5.23c.32-.59.54-1.23.66-1.89.11-.19.34-.22.54-.07ZM135.2,100.07l.25.15c.59.36,2.64.27,4.52-2.82,1.99-3.23,1.08-5.11.54-5.43l-.25-.16c-.25-.15-.59.5-1.14,1.41l-3.18,5.19c-.54.91-.98,1.51-.74,1.66Z"/>
            <path class="cls-1" d="M141.74,100.11c1.55-1.81,3.46-2.08,5.17-.62,1.06.91,1.75,2.35.63,3.65-1,1.13-2.09.55-3.08-.3l-1.21-1c-1.55,1.81-1.51,3.05-1.1,3.4.41.36,1.37.17,1.99-.19.23-.17.55-.17.79,0,.27.18.34.54.16.8-.06.08-.13.15-.22.19-1.02.49-2.24.32-3.09-.44-1.74-1.57-1.48-3.82-.03-5.51ZM143.58,101.44l.75.64c.55.47,1.13,0,1.53-.44.56-.65,1.06-1.47.72-1.76s-1.58.06-3,1.56Z"/>
            <path class="cls-1" d="M145.25,106.31c.39-.29.93-.21,1.22.17.73.86-1.05,1.99-.34,2.88.41.39,1.05.39,1.45,0,1.25-1.07-.82-4.31.71-5.6,1.19-1,2.87,0,3.59.89,1.15,1.34,1.3,2.73.52,3.38-.39.29-.93.21-1.22-.17-.73-.86,1.05-2.04.34-2.88-.38-.4-1.01-.42-1.41-.05-.02.01-.03.03-.05.05-1.25,1.07.8,4.4-.74,5.69-1.19,1-2.84-.11-3.56-1-1.15-1.33-1.3-2.71-.52-3.36Z"/>
            <path class="cls-1" d="M153.48,108.89l1.26.4c.23.05.43.17.58.35.12.17.08.42-.38.73l-3.84,2.55c-1.05.69-1.09,1.24-1.39,1.43-.3.19-.53-.16-.53-.16l-1.12-1.69c-.14-.16-.13-.4.03-.53,0,0,.02-.02.03-.02.66-.14,1.28-.38,1.86-.72l2.46-1.63c.15-.67.33-.92,1.05-.7ZM158.17,107.01c.41.64.23,1.5-.41,1.92-.61.46-1.48.33-1.94-.28-.46-.61-.33-1.48.28-1.94.04-.03.08-.06.12-.08.64-.43,1.51-.26,1.94.38h0Z"/>
            <path class="cls-1" d="M148.28,115.54c.46,1-1.27,1.45-.6,2.99.28,1.01,1.33,1.6,2.34,1.32.1-.03.19-.06.29-.1,1.08-.49.86-1.78.28-3.54-.32-1,.07-1.55.79-1.56h.89c.12-.95.76-1.76,1.66-2.09,1.99-.89,3.31.39,3.98,1.62,1.06-.31,2.2.17,2.71,1.15.33.73.46,2.1-.47,2.52-.44.18-.95-.04-1.13-.48,0,0,0-.02,0-.02-.46-1,1.2-1.29.87-2.06-.34-.77-1.52-.7-1.75-.65.55,1.31.75,3.3-1.35,4.25-2.1.95-3.49-.66-4.08-1.99-.25-.54-.4-1.13-.44-1.73h-.67c-.16,0-.07.3.15.78.13.31.32.68.52,1.11,1.32,2.99.3,4.1-.62,4.52-2.26,1-3.98-1.99-4.4-2.94-.9-1.99-1-3.25-.08-3.67.45-.16.95.08,1.11.53,0,.02.01.04.02.06ZM154.84,114.6c-1.89.85-1.9,1.65-1.7,2.1s.81,1,2.7.13c1.89-.87,1.99-1.68,1.76-2.13-.23-.45-.87-.95-2.76-.1Z"/>
            <path class="cls-1" d="M158.95,120.27l1,.85c.16.13.28.31.34.51,0,.24-.07.47-.56.57l-.32.06c.74.32,1.29.96,1.49,1.74.2,1.01-.38,2.02-1.35,2.35-.73.29-3.93,1-4.52,1.25-.43.18-.46.57-.87.65-.23,0-.38-.12-.43-.36l-.38-1.89c0-.26.13-.54.69-.64.91-.14,2.11-.12,3.8-.39,1.38-.23,2.34-.37,2.17-1.2-.09-.48-.7-1-1.49-1.34l-3.38.67c-.65.17-1.26.44-1.83.8-.35.07-.43-.35-.43-.35l-.4-1.99c-.05-.29,0-.45.27-.49.66.11,1.33.11,1.99,0l2.99-.58c.68-.1.66-.68,1.22-.21Z"/>
            <path class="cls-1" d="M158.45,151.29c.11.33.26.64.43.95.94,0,1.66-.28,1.7-.83,0-.71-1.77-1.35-1.69-2.54-.02-.43.32-.8.75-.82.03,0,.05,0,.08,0,1,.06,1.45,1.45,1.33,3.38-.12,1.93-.79,2.49-1.88,2.64-.73.09-3.86,0-4.47.08-.44.07-.57.47-1,.45-.22,0-.33-.24-.31-.49l.13-1.99c.01-.23.19-.42.42-.45-.31-.54-.46-1.17-.44-1.79.03-1.2,1.02-2.15,2.22-2.12,0,0,.01,0,.02,0,1.91.08,2.19,1.97,2.7,3.52ZM155.78,150.11c-.42,0-1.25,0-1.3.76,0,.27.05.54.18.79.83.13,1.86.41,3.3.57h.25l-.42-.77c-.37-.79-1.14-1.31-2.01-1.34Z"/>
            <path class="cls-1" d="M161.55,150.07c-.08,0,.14.36.25,1.08.06.43,0,.51.09.89,0,.05.18,1,.37,1s.44-.81.26-1.56-.87-1.47-.97-1.4Z"/>
            <path class="cls-1" d="M159.12,132.03c3.37,0,5.59,1.67,5.61,4.56,0,1.91-.47,3.12-1.55,3.13-.48-.02-.86-.43-.84-.91,0,0,0,0,0,0,0-1.11,1.9-.77,1.89-2.21,0-1-1.72-2.35-5.1-2.32-3.62,0-4.91,1.59-4.9,2.52-.02.37.12.74.4,1h2.5c.49-.48.78-.59,1.25,0l.85,1c.14.16.23.36.24.57,0,.24-.15.44-.66.45h-4.2c-.46,0-.7,0-.71-.47,0-.33.08-.66.24-.95-.27-.48-.41-1.02-.41-1.57-.03-2.76,1.75-4.75,5.38-4.78Z"/>
            <path class="cls-1" d="M160.57,141.2l.82,1c.13.17.2.37.21.58,0,.24-.17.44-.68.42h-.07c.52.51.82,1.2.83,1.93,0,1-.67,2.23-1.69,2.2-.49-.05-.85-.49-.8-.98,0,0,0,0,0-.01,0-1.11,1.65-1,1.67-1.62-.09-.61-.4-1.17-.87-1.57l-3.74-.12c-.68.01-1.35.13-1.99.37-.36,0-.34-.44-.34-.44l.06-1.99c0-.29.14-.42.37-.42.63.27,1.3.44,1.99.49l2.99.1c.69.06.8-.52,1.24.08Z"/>
            <path class="cls-1" d="M160.51,155.28l-.07,1.08h.82c1.7.03,3.06,1.44,3.03,3.14,0,.15-.02.3-.04.45-.08,1.4-.6,2.69-1.62,2.63-.48-.06-.83-.49-.77-.97,0,0,0-.02,0-.02.07-1.1,1.83-.73,1.89-1.67,0-.72-.5-1.4-2.58-1.53l-.81-.05-.06,1.08c.03.14-.06.28-.2.3-.14.03-.28-.06-.3-.2,0-.03,0-.07,0-.1l.07-1.08-4.82-.28c-.68,0-1.35.1-1.99.31-.35,0-.33-.45-.33-.45l.12-1.99c0-.43.38-.41.38-.41.61.28,1.26.47,1.93.55l4.82.29.06-1.08c-.05-.13.01-.28.15-.34.13-.05.28.01.34.15.03.06.02.14,0,.2Z"/>
            <path class="cls-1" d="M159.17,163.41l.79,1.07c.15.18.23.4.25.63,0,.21-.19.39-.74.36l-4.6-.25c-.68,0-1.35.11-1.99.32-.35,0-.33-.45-.33-.45l.11-1.99c0-.43.38-.41.38-.41.61.28,1.26.46,1.93.53l2.99.16c.48-.48.78-.57,1.21.04ZM164.06,164.69c-.05.77-.71,1.35-1.48,1.3-.76-.04-1.35-.69-1.31-1.46s.69-1.35,1.46-1.31c.77.04,1.37.69,1.33,1.46h0Z"/>
            <path class="cls-1" d="M161.36,169.39c.3,1.1.07,2.53-.92,2.79-.46.07-.89-.23-1-.68-.29-1.08,1.65-1.33,1.48-1.99-.13-.48-1.42-1.05-3.72-.43-2.3.62-3.12,1.71-2.99,2.23s1,.83,1.66.82c.3-.03.57.17.65.46.1.33-.08.67-.41.77-.04.01-.09.02-.13.03-1.09-.1-2-.88-2.26-1.94-.61-2.27.73-3.98,2.88-4.52,2.26-.62,4.14.19,4.75,2.47Z"/>
            <path class="cls-1" d="M158.47,173.77c2.17-1,4.14-.52,5.13,1.62.99,2.14.08,3.98-2.09,4.98-2.17,1-4.13.52-5.12-1.61s-.09-3.99,2.08-4.99ZM156.85,178.51c.27.59,1.56.8,3.72-.21,2.16-1.01,2.84-2.12,2.57-2.7-.27-.58-1.56-.8-3.72.21-2.16,1.01-2.84,2.12-2.57,2.7h0Z"/>
          </g>
        </g>
      </g>
    </g>
  </g>
</svg>